<?xml version="1.0" encoding="UTF-8" standalone="no"?><!DOCTYPE svg PUBLIC "-//W3C//DTD SVG 1.1//EN" "http://www.w3.org/Graphics/SVG/1.1/DTD/svg11.dtd"><svg width="400px" height="100px" viewBox="0 0 800 300" version="1.1" xmlns="http://www.w3.org/2000/svg" xmlns:xlink="http://www.w3.org/1999/xlink" xml:space="preserve" style="fill-rule:evenodd;clip-rule:evenodd;stroke-linejoin:round;stroke-miterlimit:2;"><path d="M131.448,213.296c-5.649,0 -10.106,-1.689 -13.374,-5.067c-3.267,-3.378 -4.901,-8.113 -4.901,-14.204l0,-105.494l15.285,-1.827l-0,106.989c-0,2.436 0.415,4.208 1.246,5.316c0.83,1.107 2.242,1.661 4.236,1.661c2.104,0 3.987,-0.332 5.648,-0.997l3.988,10.633c-3.655,1.993 -7.698,2.99 -12.128,2.99Z" style="fill:#fff;fill-rule:nonzero;"/><path d="M224.648,164.952c-0,2.547 -0.111,5.15 -0.332,7.808l-55.821,0c0.665,9.636 3.101,16.724 7.31,21.265c4.209,4.541 9.636,6.811 16.281,6.811c4.209,0 8.085,-0.609 11.629,-1.827c3.544,-1.218 7.255,-3.157 11.131,-5.815l6.645,9.138c-9.303,7.309 -19.492,10.964 -30.568,10.964c-12.183,0 -21.68,-3.987 -28.492,-11.961c-6.811,-7.975 -10.217,-18.939 -10.217,-32.894c0,-9.082 1.468,-17.14 4.403,-24.173c2.935,-7.032 7.144,-12.543 12.626,-16.53c5.482,-3.987 11.934,-5.98 19.354,-5.98c11.629,-0 20.545,3.821 26.747,11.463c6.203,7.642 9.304,18.219 9.304,31.731Zm-15.118,-4.486c-0,-8.639 -1.717,-15.228 -5.15,-19.769c-3.434,-4.541 -8.584,-6.812 -15.45,-6.812c-12.516,0 -19.327,9.193 -20.435,27.578l41.035,0l-0,-0.997Z" style="fill:#fff;fill-rule:nonzero;"/><path d="M289.938,207.315c-5.76,3.988 -12.294,5.981 -19.604,5.981c-7.42,0 -13.207,-2.132 -17.361,-6.396c-4.153,-4.264 -6.23,-10.438 -6.23,-18.524l0,-52.829l-15.284,-0l0,-11.796l15.284,0l0,-19.77l15.285,-1.827l-0,21.597l20.766,0l-1.661,11.796l-19.105,-0l-0,52.165c-0,4.541 0.802,7.836 2.408,9.885c1.606,2.049 4.292,3.073 8.058,3.073c3.433,0 7.31,-1.163 11.629,-3.489l5.815,10.134Z" style="fill:#fff;fill-rule:nonzero;"/><path d="M326.154,121.758c5.981,-0 11.353,0.83 16.115,2.492c4.763,1.661 9.304,4.153 13.623,7.475l-6.479,9.636c-3.987,-2.547 -7.781,-4.43 -11.38,-5.648c-3.6,-1.219 -7.393,-1.828 -11.38,-1.828c-4.984,0 -8.916,1.025 -11.796,3.074c-2.879,2.049 -4.319,4.845 -4.319,8.389c0,3.544 1.357,6.313 4.07,8.307c2.714,1.993 7.615,3.932 14.703,5.815c9.746,2.436 17.028,5.759 21.846,9.967c4.818,4.209 7.227,9.968 7.227,17.278c-0,8.639 -3.35,15.229 -10.051,19.77c-6.701,4.541 -14.869,6.811 -24.504,6.811c-13.291,0 -24.311,-3.821 -33.061,-11.463l8.141,-9.303c7.42,5.648 15.616,8.472 24.587,8.472c5.76,0 10.328,-1.19 13.706,-3.571c3.378,-2.382 5.067,-5.621 5.067,-9.719c0,-2.99 -0.609,-5.399 -1.827,-7.227c-1.219,-1.827 -3.323,-3.433 -6.313,-4.818c-2.991,-1.384 -7.365,-2.852 -13.125,-4.402c-9.303,-2.437 -16.031,-5.704 -20.185,-9.802c-4.153,-4.098 -6.23,-9.303 -6.23,-15.616c0,-4.541 1.357,-8.667 4.071,-12.377c2.713,-3.71 6.479,-6.59 11.297,-8.639c4.817,-2.049 10.217,-3.073 16.197,-3.073Z" style="fill:#fff;fill-rule:nonzero;"/><path d="M420.85,207.315c-5.76,3.988 -12.294,5.981 -19.604,5.981c-7.421,0 -13.207,-2.132 -17.361,-6.396c-4.153,-4.264 -6.23,-10.438 -6.23,-18.524l0,-52.829l-15.284,-0l0,-11.796l15.284,0l0,-19.77l15.284,-1.827l0,21.597l20.767,0l-1.661,11.796l-19.106,-0l0,52.165c0,4.541 0.803,7.836 2.409,9.885c1.606,2.049 4.292,3.073 8.058,3.073c3.433,0 7.31,-1.163 11.629,-3.489l5.815,10.134Z" style="fill:#fff;fill-rule:nonzero;"/><path d="M498.433,211.303l-13.124,-0l-1.163,-13.623c-3.323,5.427 -7.144,9.386 -11.463,11.878c-4.32,2.492 -9.581,3.738 -15.783,3.738c-7.642,0 -13.623,-2.326 -17.942,-6.977c-4.32,-4.652 -6.479,-11.242 -6.479,-19.77l-0,-62.798l15.284,0l-0,61.137c-0,5.98 1.052,10.217 3.156,12.709c2.105,2.492 5.538,3.738 10.301,3.738c8.528,-0 15.837,-5.04 21.929,-15.118l-0,-62.466l15.284,0l0,87.552Z" style="fill:#fff;fill-rule:nonzero;"/><path d="M567.876,121.758c7.975,-0 14.204,2.381 18.69,7.143c4.486,4.763 6.728,11.297 6.728,19.604l0,62.798l-15.284,-0l0,-60.638c0,-6.203 -1.163,-10.578 -3.489,-13.125c-2.325,-2.547 -5.759,-3.821 -10.3,-3.821c-4.651,0 -8.749,1.329 -12.293,3.987c-3.545,2.658 -6.867,6.479 -9.968,11.463l-0,62.134l-15.284,-0l-0,-87.552l13.124,0l1.329,12.958c3.101,-4.651 6.95,-8.306 11.546,-10.964c4.596,-2.658 9.663,-3.987 15.201,-3.987Z" style="fill:#fff;fill-rule:nonzero;"/><path d="M686.827,164.952c-0,2.547 -0.111,5.15 -0.333,7.808l-55.82,0c0.665,9.636 3.101,16.724 7.31,21.265c4.209,4.541 9.636,6.811 16.281,6.811c4.208,0 8.085,-0.609 11.629,-1.827c3.544,-1.218 7.254,-3.157 11.131,-5.815l6.645,9.138c-9.303,7.309 -19.493,10.964 -30.568,10.964c-12.183,0 -21.68,-3.987 -28.492,-11.961c-6.811,-7.975 -10.217,-18.939 -10.217,-32.894c0,-9.082 1.468,-17.14 4.403,-24.173c2.935,-7.032 7.143,-12.543 12.626,-16.53c5.482,-3.987 11.933,-5.98 19.354,-5.98c11.629,-0 20.545,3.821 26.747,11.463c6.202,7.642 9.304,18.219 9.304,31.731Zm-15.118,-4.486c-0,-8.639 -1.717,-15.228 -5.15,-19.769c-3.434,-4.541 -8.584,-6.812 -15.451,-6.812c-12.515,0 -19.326,9.193 -20.434,27.578l41.035,0l-0,-0.997Z" style="fill:#fff;fill-rule:nonzero;"/></svg>