<?xml version="1.0" encoding="UTF-8" standalone="no"?><!DOCTYPE svg PUBLIC "-//W3C//DTD SVG 1.1//EN" "http://www.w3.org/Graphics/SVG/1.1/DTD/svg11.dtd"><svg width="100%" height="100%" viewBox="0 0 800 300" version="1.1" xmlns="http://www.w3.org/2000/svg" xmlns:xlink="http://www.w3.org/1999/xlink" xml:space="preserve" style="fill-rule:evenodd;clip-rule:evenodd;stroke-linejoin:round;stroke-miterlimit:2;"><g transform="matrix(2.08775,0,0,2.08775,-77.1494,-335.687)"><g transform="matrix(79.5746,0,0,79.5746,84,262)"><path d="M0.2,0.012c-0.034,0 -0.061,-0.01 -0.081,-0.031c-0.019,-0.02 -0.029,-0.048 -0.029,-0.085l-0,-0.635l0.092,-0.011l0,0.644c0,0.015 0.003,0.025 0.008,0.032c0.005,0.007 0.013,0.01 0.025,0.01c0.013,-0 0.024,-0.002 0.034,-0.006l0.024,0.064c-0.022,0.012 -0.046,0.018 -0.073,0.018Z" style="fill:#504036;fill-rule:nonzero;"/></g><g transform="matrix(79.5746,0,0,79.5746,105.326,262)"><path d="M0.493,-0.279c0,0.015 -0.001,0.031 -0.002,0.047l-0.336,0c0.004,0.058 0.019,0.101 0.044,0.128c0.025,0.027 0.058,0.041 0.098,0.041c0.025,0 0.049,-0.004 0.07,-0.011c0.021,-0.007 0.044,-0.019 0.067,-0.035l0.04,0.055c-0.056,0.044 -0.117,0.066 -0.184,0.066c-0.073,0 -0.13,-0.024 -0.171,-0.072c-0.041,-0.048 -0.062,-0.114 -0.062,-0.198c0,-0.055 0.009,-0.103 0.027,-0.145c0.017,-0.043 0.043,-0.076 0.076,-0.1c0.033,-0.024 0.071,-0.036 0.116,-0.036c0.07,0 0.124,0.023 0.161,0.069c0.037,0.046 0.056,0.11 0.056,0.191Zm-0.091,-0.027c0,-0.052 -0.01,-0.092 -0.031,-0.119c-0.021,-0.027 -0.052,-0.041 -0.093,-0.041c-0.075,0 -0.116,0.055 -0.123,0.166l0.247,0l0,-0.006Z" style="fill:#504036;fill-rule:nonzero;"/></g><g transform="matrix(79.5746,0,0,79.5746,147.103,262)"><path d="M0.361,-0.024c-0.035,0.024 -0.074,0.036 -0.118,0.036c-0.045,-0 -0.079,-0.013 -0.104,-0.039c-0.025,-0.025 -0.038,-0.062 -0.038,-0.111l0,-0.318l-0.092,0l0,-0.071l0.092,0l0,-0.119l0.092,-0.011l0,0.13l0.125,0l-0.01,0.071l-0.115,0l0,0.314c0,0.027 0.005,0.047 0.015,0.06c0.009,0.012 0.025,0.018 0.048,0.018c0.021,0 0.044,-0.007 0.07,-0.021l0.035,0.061Z" style="fill:#504036;fill-rule:nonzero;"/></g><g transform="matrix(79.5746,0,0,79.5746,174.238,262)"><path d="M0.238,-0.539c0.036,0 0.068,0.005 0.097,0.015c0.029,0.01 0.056,0.025 0.082,0.045l-0.039,0.058c-0.024,-0.015 -0.047,-0.027 -0.069,-0.034c-0.021,-0.007 -0.044,-0.011 -0.068,-0.011c-0.03,0 -0.054,0.006 -0.071,0.019c-0.017,0.012 -0.026,0.029 -0.026,0.05c-0,0.021 0.008,0.038 0.024,0.05c0.017,0.012 0.046,0.024 0.089,0.035c0.059,0.015 0.102,0.035 0.132,0.06c0.028,0.025 0.043,0.06 0.043,0.104c0,0.052 -0.02,0.092 -0.061,0.119c-0.04,0.027 -0.089,0.041 -0.147,0.041c-0.08,0 -0.146,-0.023 -0.199,-0.069l0.049,-0.056c0.045,0.034 0.094,0.051 0.148,0.051c0.035,0 0.062,-0.007 0.083,-0.021c0.02,-0.015 0.03,-0.034 0.03,-0.059c0,-0.018 -0.004,-0.032 -0.011,-0.043c-0.007,-0.011 -0.02,-0.021 -0.038,-0.029c-0.018,-0.009 -0.044,-0.018 -0.079,-0.027c-0.056,-0.015 -0.096,-0.034 -0.121,-0.059c-0.025,-0.025 -0.038,-0.056 -0.038,-0.094c0,-0.027 0.008,-0.052 0.025,-0.075c0.016,-0.022 0.039,-0.039 0.068,-0.051c0.029,-0.013 0.061,-0.019 0.097,-0.019Z" style="fill:#504036;fill-rule:nonzero;"/></g><g transform="matrix(79.5746,0,0,79.5746,209.808,262)"><path d="M0.361,-0.024c-0.035,0.024 -0.074,0.036 -0.118,0.036c-0.045,-0 -0.079,-0.013 -0.104,-0.039c-0.025,-0.025 -0.038,-0.062 -0.038,-0.111l0,-0.318l-0.092,0l0,-0.071l0.092,0l0,-0.119l0.092,-0.011l0,0.13l0.125,0l-0.01,0.071l-0.115,0l0,0.314c0,0.027 0.005,0.047 0.015,0.06c0.009,0.012 0.025,0.018 0.048,0.018c0.021,0 0.044,-0.007 0.07,-0.021l0.035,0.061Z" style="fill:#edaf67;fill-rule:nonzero;"/></g><g transform="matrix(79.5746,0,0,79.5746,236.942,262)"><path d="M0.487,-0l-0.079,-0l-0.007,-0.082c-0.02,0.033 -0.043,0.057 -0.069,0.072c-0.026,0.014 -0.058,0.022 -0.095,0.022c-0.046,-0 -0.082,-0.014 -0.108,-0.042c-0.026,-0.028 -0.039,-0.068 -0.039,-0.119l0,-0.378l0.092,0l0,0.368c0,0.036 0.006,0.062 0.019,0.077c0.013,0.015 0.033,0.022 0.062,0.022c0.051,0 0.095,-0.03 0.132,-0.091l0,-0.376l0.092,0l0,0.527Z" style="fill:#edaf67;fill-rule:nonzero;"/></g><g transform="matrix(79.5746,0,0,79.5746,281.663,262)"><path d="M0.343,-0.539c0.048,0 0.086,0.014 0.112,0.043c0.027,0.029 0.041,0.068 0.041,0.118l0,0.378l-0.092,0l0,-0.365c0,-0.037 -0.007,-0.064 -0.021,-0.079c-0.014,-0.015 -0.035,-0.023 -0.062,-0.023c-0.028,0 -0.053,0.008 -0.074,0.024c-0.021,0.016 -0.041,0.039 -0.06,0.069l0,0.374l-0.092,0l0,-0.527l0.079,0l0.008,0.078c0.019,-0.028 0.042,-0.05 0.07,-0.066c0.027,-0.016 0.058,-0.024 0.091,-0.024Z" style="fill:#edaf67;fill-rule:nonzero;"/></g><g transform="matrix(79.5746,0,0,79.5746,326.703,262)"><path d="M0.493,-0.279c0,0.015 -0.001,0.031 -0.002,0.047l-0.336,0c0.004,0.058 0.019,0.101 0.044,0.128c0.025,0.027 0.058,0.041 0.098,0.041c0.025,0 0.049,-0.004 0.07,-0.011c0.021,-0.007 0.044,-0.019 0.067,-0.035l0.04,0.055c-0.056,0.044 -0.117,0.066 -0.184,0.066c-0.073,0 -0.13,-0.024 -0.171,-0.072c-0.041,-0.048 -0.062,-0.114 -0.062,-0.198c0,-0.055 0.009,-0.103 0.027,-0.145c0.017,-0.043 0.043,-0.076 0.076,-0.1c0.033,-0.024 0.071,-0.036 0.116,-0.036c0.07,0 0.124,0.023 0.161,0.069c0.037,0.046 0.056,0.11 0.056,0.191Zm-0.091,-0.027c0,-0.052 -0.01,-0.092 -0.031,-0.119c-0.021,-0.027 -0.052,-0.041 -0.093,-0.041c-0.075,0 -0.116,0.055 -0.123,0.166l0.247,0l0,-0.006Z" style="fill:#edaf67;fill-rule:nonzero;"/></g></g></svg>